<!DOCTYPE svg PUBLIC "-//W3C//DTD SVG 1.1//EN" "http://www.w3.org/Graphics/SVG/1.1/DTD/svg11.dtd">
<svg xmlns="http://www.w3.org/2000/svg" xmlns:xlink="http://www.w3.org/1999/xlink" width="48px" height="59px" version="1.1"><defs/><g transform="translate(0.5,0.5)"><path d="M 40.31 35.46 C 41.52 35.46 42.2 34.47 42.2 33.63 C 42.2 32.36 41.24 31.7 40.31 31.7 C 39.18 31.7 38.41 32.6 38.41 33.56 C 38.41 34.7 39.31 35.46 40.31 35.46 Z M 37.74 42.52 C 35.85 41.87 33.18 39.59 33.12 35.95 C 33.12 31.91 36.32 28.69 40.3 28.69 C 44.35 28.69 47.5 32.01 47.5 35.83 C 47.5 38.85 45.67 41.32 42.96 42.44 L 42.96 45.29 L 41.14 47.48 L 43.72 50.04 L 43.72 50.19 L 41.44 52.6 L 43.64 54.85 L 40.54 58 L 37.74 54.99 Z M 30.77 23.44 L 30.77 15.14 C 30.77 10.35 26.69 4.5 19.91 4.5 C 13.35 4.5 8.82 9.82 8.82 15.13 L 8.82 23.44 Z M 3.41 52.59 C 2.04 52.59 0.5 51.34 0.5 49.61 L 0.5 26.24 C 0.5 24.58 2 23.44 3.43 23.44 L 4.28 23.44 L 4.28 15.06 C 4.28 7.95 10.23 0 20.13 0 C 28.33 0 35.31 7.2 35.31 15.05 L 35.31 23.44 L 36.14 23.44 C 37.74 23.44 39.09 24.71 39.09 26.21 L 39.09 26.42 C 34.37 26.98 30.98 30.82 30.71 35.25 C 30.55 38.8 32.23 42.01 35.32 43.8 L 35.32 52.59 Z" fill="#808080" stroke="none" pointer-events="none"/></g></svg>
